<svg xmlns="http://www.w3.org/2000/svg" version="1.1" xmlns:xlink="http://www.w3.org/1999/xlink" xmlns:svgjs="http://svgjs.com/svgjs" width="1440" height="560" preserveAspectRatio="none" viewBox="0 0 1440 560"><g mask="url(&quot;#SvgjsMask1022&quot;)" fill="none"><rect width="1440" height="560" x="0" y="0" fill="#0e2a47"></rect><path d="M774.225,663.495C814.826,662.974,842.75,628.18,863.674,593.382C885.505,557.075,905.916,514.578,886.367,476.993C865.733,437.323,818.818,418.096,774.225,421.412C734.485,424.367,706.51,456.651,687.671,491.767C670.073,524.571,663.954,562.488,680.709,595.73C699.279,632.575,732.968,664.025,774.225,663.495" fill="rgba(28, 83, 142, 0.4)" class="triangle-float3"></path><path d="M753.9084161168364 126.78881605347145L833.8628903630427 49.57767777830878 756.6517520878799-30.37679646789742 676.6972778416738 46.83434180726525z" fill="rgba(28, 83, 142, 0.4)" class="triangle-float2"></path><path d="M382.366,458.831C401.453,459.915,419.671,448.691,428.514,431.741C436.805,415.85,432.297,396.935,422.487,381.934C413.654,368.428,398.503,361.392,382.366,361.178C365.797,360.959,348.632,366.487,340.364,380.847C332.109,395.183,336.638,412.404,344.483,426.969C352.869,442.539,364.709,457.828,382.366,458.831" fill="rgba(28, 83, 142, 0.4)" class="triangle-float2"></path><path d="M971.727,460.162C1020.334,460.922,1068.903,436.226,1089.641,392.258C1108.331,352.632,1082.955,310.528,1059.866,273.293C1038.534,238.892,1012.112,204.845,971.727,202.1C926.94,199.056,883.124,221.198,860.065,259.713C836.399,299.242,837.606,348.421,860.027,388.67C883.084,430.061,924.353,459.422,971.727,460.162" fill="rgba(28, 83, 142, 0.4)" class="triangle-float3"></path><path d="M1205.634,492.248C1237.82,492.81,1273.348,487.297,1289.574,459.494C1305.888,431.539,1294.154,397.281,1277.119,369.759C1261.148,343.955,1235.97,323.078,1205.634,323.877C1176.388,324.647,1155.348,348.22,1140.387,373.361C1124.964,399.278,1112.115,430.208,1126.625,456.647C1141.52,483.788,1174.679,491.707,1205.634,492.248" fill="rgba(28, 83, 142, 0.4)" class="triangle-float2"></path><path d="M1405.5379739144148 501.8826451398818L1472.2571392417822 456.87999988995443 1371.3935887032076 379.3025745238669z" fill="rgba(28, 83, 142, 0.4)" class="triangle-float3"></path></g><defs><mask id="SvgjsMask1022"><rect width="1440" height="560" fill="#ffffff"></rect></mask><style>
            @keyframes float1 {
                0%{transform: translate(0, 0)}
                50%{transform: translate(-10px, 0)}
                100%{transform: translate(0, 0)}
            }

            .triangle-float1 {
                animation: float1 5s infinite;
            }

            @keyframes float2 {
                0%{transform: translate(0, 0)}
                50%{transform: translate(-5px, -5px)}
                100%{transform: translate(0, 0)}
            }

            .triangle-float2 {
                animation: float2 4s infinite;
            }

            @keyframes float3 {
                0%{transform: translate(0, 0)}
                50%{transform: translate(0, -10px)}
                100%{transform: translate(0, 0)}
            }

            .triangle-float3 {
                animation: float3 6s infinite;
            }
        </style></defs></svg>