<svg xmlns="http://www.w3.org/2000/svg" version="1.1" xmlns:xlink="http://www.w3.org/1999/xlink" xmlns:svgjs="http://svgjs.com/svgjs" width="1440" height="560" preserveAspectRatio="none" viewBox="0 0 1440 560"><g mask="url(&quot;#SvgjsMask1010&quot;)" fill="none"><rect width="1440" height="560" x="0" y="0" fill="#0e2a47"></rect><path d="M-59.69 398.27L-59.69 398.27" stroke="#132e65" stroke-width="1.5"></path><path d="M-59.69 398.27L-80.77 530.62" stroke="#132e65" stroke-width="1.5"></path><path d="M-59.69 398.27L98.45 389.16" stroke="#132e65" stroke-width="1.5"></path><path d="M-80.77 530.62L-80.77 530.62" stroke="#132e65" stroke-width="1.5"></path><path d="M-80.77 530.62L-66.27 652.38" stroke="#132e65" stroke-width="1.5"></path><path d="M-80.77 530.62L70.08 554.21" stroke="#132e65" stroke-width="1.5"></path><path d="M-80.77 530.62L98.45 389.16" stroke="#132e65" stroke-width="1.5"></path><path d="M-80.77 530.62L91.16 712.19" stroke="#132e65" stroke-width="1.5"></path><path d="M-80.77 530.62L229.22 558.76" stroke="#132e65" stroke-width="1.5"></path><path d="M-66.27 652.38L-66.27 652.38" stroke="#132e65" stroke-width="1.5"></path><path d="M-66.27 652.38L70.08 554.21" stroke="#132e65" stroke-width="1.5"></path><path d="M-66.27 652.38L91.16 712.19" stroke="#132e65" stroke-width="1.5"></path><path d="M98.45 389.16L98.45 389.16" stroke="#132e65" stroke-width="1.5"></path><path d="M98.45 389.16L259 391.39" stroke="#132e65" stroke-width="1.5"></path><path d="M98.45 389.16L70.08 554.21" stroke="#132e65" stroke-width="1.5"></path><path d="M98.45 389.16L229.22 558.76" stroke="#132e65" stroke-width="1.5"></path><path d="M98.45 389.16L405.88 359.64" stroke="#132e65" stroke-width="1.5"></path><path d="M70.08 554.21L70.08 554.21" stroke="#132e65" stroke-width="1.5"></path><path d="M70.08 554.21L229.22 558.76" stroke="#132e65" stroke-width="1.5"></path><path d="M91.16 712.19L91.16 712.19" stroke="#132e65" stroke-width="1.5"></path><path d="M91.16 712.19L70.08 554.21" stroke="#132e65" stroke-width="1.5"></path><path d="M91.16 712.19L259.9 695.09" stroke="#132e65" stroke-width="1.5"></path><path d="M259 391.39L259 391.39" stroke="#132e65" stroke-width="1.5"></path><path d="M259 391.39L405.88 359.64" stroke="#132e65" stroke-width="1.5"></path><path d="M229.22 558.76L229.22 558.76" stroke="#132e65" stroke-width="1.5"></path><path d="M229.22 558.76L259.9 695.09" stroke="#132e65" stroke-width="1.5"></path><path d="M229.22 558.76L383.97 552.8" stroke="#132e65" stroke-width="1.5"></path><path d="M259.9 695.09L259.9 695.09" stroke="#132e65" stroke-width="1.5"></path><path d="M259.9 695.09L406.71 704.16" stroke="#132e65" stroke-width="1.5"></path><path d="M259.9 695.09L383.97 552.8" stroke="#132e65" stroke-width="1.5"></path><path d="M259.9 695.09L70.08 554.21" stroke="#132e65" stroke-width="1.5"></path><path d="M405.88 359.64L405.88 359.64" stroke="#132e65" stroke-width="1.5"></path><path d="M405.88 359.64L544.51 368.14" stroke="#132e65" stroke-width="1.5"></path><path d="M405.88 359.64L383.97 552.8" stroke="#132e65" stroke-width="1.5"></path><path d="M383.97 552.8L383.97 552.8" stroke="#132e65" stroke-width="1.5"></path><path d="M383.97 552.8L517.2 525.13" stroke="#132e65" stroke-width="1.5"></path><path d="M383.97 552.8L406.71 704.16" stroke="#132e65" stroke-width="1.5"></path><path d="M406.71 704.16L406.71 704.16" stroke="#132e65" stroke-width="1.5"></path><path d="M406.71 704.16L539.72 677.63" stroke="#132e65" stroke-width="1.5"></path><path d="M544.51 368.14L544.51 368.14" stroke="#132e65" stroke-width="1.5"></path><path d="M544.51 368.14L697.68 402.8" stroke="#132e65" stroke-width="1.5"></path><path d="M544.51 368.14L517.2 525.13" stroke="#132e65" stroke-width="1.5"></path><path d="M517.2 525.13L517.2 525.13" stroke="#132e65" stroke-width="1.5"></path><path d="M517.2 525.13L539.72 677.63" stroke="#132e65" stroke-width="1.5"></path><path d="M517.2 525.13L680.22 518.27" stroke="#132e65" stroke-width="1.5"></path><path d="M539.72 677.63L539.72 677.63" stroke="#132e65" stroke-width="1.5"></path><path d="M539.72 677.63L686.26 693.78" stroke="#132e65" stroke-width="1.5"></path><path d="M539.72 677.63L383.97 552.8" stroke="#132e65" stroke-width="1.5"></path><path d="M539.72 677.63L680.22 518.27" stroke="#132e65" stroke-width="1.5"></path><path d="M539.72 677.63L791.06 666.66" stroke="#132e65" stroke-width="1.5"></path><path d="M655.46 221.68L655.46 221.68" stroke="#132e65" stroke-width="1.5"></path><path d="M655.46 221.68L793.39 219.51" stroke="#132e65" stroke-width="1.5"></path><path d="M655.46 221.68L544.51 368.14" stroke="#132e65" stroke-width="1.5"></path><path d="M655.46 221.68L697.68 402.8" stroke="#132e65" stroke-width="1.5"></path><path d="M655.46 221.68L832.69 96.76" stroke="#132e65" stroke-width="1.5"></path><path d="M655.46 221.68L849.78 402.2" stroke="#132e65" stroke-width="1.5"></path><path d="M655.46 221.68L405.88 359.64" stroke="#132e65" stroke-width="1.5"></path><path d="M697.68 402.8L697.68 402.8" stroke="#132e65" stroke-width="1.5"></path><path d="M697.68 402.8L680.22 518.27" stroke="#132e65" stroke-width="1.5"></path><path d="M697.68 402.8L849.78 402.2" stroke="#132e65" stroke-width="1.5"></path><path d="M697.68 402.8L804.67 514.53" stroke="#132e65" stroke-width="1.5"></path><path d="M680.22 518.27L680.22 518.27" stroke="#132e65" stroke-width="1.5"></path><path d="M680.22 518.27L804.67 514.53" stroke="#132e65" stroke-width="1.5"></path><path d="M680.22 518.27L686.26 693.78" stroke="#132e65" stroke-width="1.5"></path><path d="M680.22 518.27L791.06 666.66" stroke="#132e65" stroke-width="1.5"></path><path d="M686.26 693.78L686.26 693.78" stroke="#132e65" stroke-width="1.5"></path><path d="M686.26 693.78L791.06 666.66" stroke="#132e65" stroke-width="1.5"></path><path d="M686.26 693.78L804.67 514.53" stroke="#132e65" stroke-width="1.5"></path><path d="M686.26 693.78L517.2 525.13" stroke="#132e65" stroke-width="1.5"></path><path d="M832.69 96.76L832.69 96.76" stroke="#132e65" stroke-width="1.5"></path><path d="M832.69 96.76L793.39 219.51" stroke="#132e65" stroke-width="1.5"></path><path d="M832.69 96.76L976.37 53.5" stroke="#132e65" stroke-width="1.5"></path><path d="M832.69 96.76L966.79 223.15" stroke="#132e65" stroke-width="1.5"></path><path d="M793.39 219.51L793.39 219.51" stroke="#132e65" stroke-width="1.5"></path><path d="M793.39 219.51L966.79 223.15" stroke="#132e65" stroke-width="1.5"></path><path d="M793.39 219.51L849.78 402.2" stroke="#132e65" stroke-width="1.5"></path><path d="M793.39 219.51L697.68 402.8" stroke="#132e65" stroke-width="1.5"></path><path d="M849.78 402.2L849.78 402.2" stroke="#132e65" stroke-width="1.5"></path><path d="M849.78 402.2L944.59 363.32" stroke="#132e65" stroke-width="1.5"></path><path d="M849.78 402.2L804.67 514.53" stroke="#132e65" stroke-width="1.5"></path><path d="M849.78 402.2L997.4 528.04" stroke="#132e65" stroke-width="1.5"></path><path d="M804.67 514.53L804.67 514.53" stroke="#132e65" stroke-width="1.5"></path><path d="M804.67 514.53L791.06 666.66" stroke="#132e65" stroke-width="1.5"></path><path d="M791.06 666.66L791.06 666.66" stroke="#132e65" stroke-width="1.5"></path><path d="M947.93 -69.41L947.93 -69.41" stroke="#132e65" stroke-width="1.5"></path><path d="M947.93 -69.41L976.37 53.5" stroke="#132e65" stroke-width="1.5"></path><path d="M947.93 -69.41L1093.79 -71.2" stroke="#132e65" stroke-width="1.5"></path><path d="M947.93 -69.41L832.69 96.76" stroke="#132e65" stroke-width="1.5"></path><path d="M947.93 -69.41L1117.65 105.05" stroke="#132e65" stroke-width="1.5"></path><path d="M947.93 -69.41L966.79 223.15" stroke="#132e65" stroke-width="1.5"></path><path d="M976.37 53.5L976.37 53.5" stroke="#132e65" stroke-width="1.5"></path><path d="M966.79 223.15L966.79 223.15" stroke="#132e65" stroke-width="1.5"></path><path d="M966.79 223.15L944.59 363.32" stroke="#132e65" stroke-width="1.5"></path><path d="M966.79 223.15L1127.23 212.68" stroke="#132e65" stroke-width="1.5"></path><path d="M966.79 223.15L976.37 53.5" stroke="#132e65" stroke-width="1.5"></path><path d="M944.59 363.32L944.59 363.32" stroke="#132e65" stroke-width="1.5"></path><path d="M997.4 528.04L997.4 528.04" stroke="#132e65" stroke-width="1.5"></path><path d="M997.4 528.04L1107.66 546.62" stroke="#132e65" stroke-width="1.5"></path><path d="M997.4 528.04L1090.54 662.13" stroke="#132e65" stroke-width="1.5"></path><path d="M997.4 528.04L944.59 363.32" stroke="#132e65" stroke-width="1.5"></path><path d="M1093.79 -71.2L1093.79 -71.2" stroke="#132e65" stroke-width="1.5"></path><path d="M1093.79 -71.2L976.37 53.5" stroke="#132e65" stroke-width="1.5"></path><path d="M1117.65 105.05L1117.65 105.05" stroke="#132e65" stroke-width="1.5"></path><path d="M1117.65 105.05L1127.23 212.68" stroke="#132e65" stroke-width="1.5"></path><path d="M1117.65 105.05L976.37 53.5" stroke="#132e65" stroke-width="1.5"></path><path d="M1127.23 212.68L1127.23 212.68" stroke="#132e65" stroke-width="1.5"></path><path d="M1127.23 212.68L1111.11 363.89" stroke="#132e65" stroke-width="1.5"></path><path d="M1127.23 212.68L1303.81 104.18" stroke="#132e65" stroke-width="1.5"></path><path d="M1111.11 363.89L1111.11 363.89" stroke="#132e65" stroke-width="1.5"></path><path d="M1111.11 363.89L944.59 363.32" stroke="#132e65" stroke-width="1.5"></path><path d="M1111.11 363.89L1107.66 546.62" stroke="#132e65" stroke-width="1.5"></path><path d="M1107.66 546.62L1107.66 546.62" stroke="#132e65" stroke-width="1.5"></path><path d="M1107.66 546.62L1090.54 662.13" stroke="#132e65" stroke-width="1.5"></path><path d="M1107.66 546.62L1292.45 530.03" stroke="#132e65" stroke-width="1.5"></path><path d="M1090.54 662.13L1090.54 662.13" stroke="#132e65" stroke-width="1.5"></path><path d="M1301.77 -48.04L1301.77 -48.04" stroke="#132e65" stroke-width="1.5"></path><path d="M1301.77 -48.04L1432.28 -51.36" stroke="#132e65" stroke-width="1.5"></path><path d="M1301.77 -48.04L1303.81 104.18" stroke="#132e65" stroke-width="1.5"></path><path d="M1301.77 -48.04L1443.77 71.21" stroke="#132e65" stroke-width="1.5"></path><path d="M1301.77 -48.04L1093.79 -71.2" stroke="#132e65" stroke-width="1.5"></path><path d="M1303.81 104.18L1303.81 104.18" stroke="#132e65" stroke-width="1.5"></path><path d="M1303.81 104.18L1443.77 71.21" stroke="#132e65" stroke-width="1.5"></path><path d="M1303.81 104.18L1402.45 247.02" stroke="#132e65" stroke-width="1.5"></path><path d="M1303.81 104.18L1117.65 105.05" stroke="#132e65" stroke-width="1.5"></path><path d="M1303.81 104.18L1432.28 -51.36" stroke="#132e65" stroke-width="1.5"></path><path d="M1292.45 530.03L1292.45 530.03" stroke="#132e65" stroke-width="1.5"></path><path d="M1292.45 530.03L1448.42 521.82" stroke="#132e65" stroke-width="1.5"></path><path d="M1292.45 530.03L1430.3 643.2" stroke="#132e65" stroke-width="1.5"></path><path d="M1432.28 -51.36L1432.28 -51.36" stroke="#132e65" stroke-width="1.5"></path><path d="M1432.28 -51.36L1443.77 71.21" stroke="#132e65" stroke-width="1.5"></path><path d="M1443.77 71.21L1443.77 71.21" stroke="#132e65" stroke-width="1.5"></path><path d="M1443.77 71.21L1593.32 87.64" stroke="#132e65" stroke-width="1.5"></path><path d="M1443.77 71.21L1402.45 247.02" stroke="#132e65" stroke-width="1.5"></path><path d="M1443.77 71.21L1595 211.22" stroke="#132e65" stroke-width="1.5"></path><path d="M1402.45 247.02L1402.45 247.02" stroke="#132e65" stroke-width="1.5"></path><path d="M1448.42 521.82L1448.42 521.82" stroke="#132e65" stroke-width="1.5"></path><path d="M1448.42 521.82L1430.3 643.2" stroke="#132e65" stroke-width="1.5"></path><path d="M1430.3 643.2L1430.3 643.2" stroke="#132e65" stroke-width="1.5"></path><path d="M1430.3 643.2L1596.09 687.02" stroke="#132e65" stroke-width="1.5"></path><path d="M1582.68 -83L1582.68 -83" stroke="#132e65" stroke-width="1.5"></path><path d="M1582.68 -83L1432.28 -51.36" stroke="#132e65" stroke-width="1.5"></path><path d="M1582.68 -83L1593.32 87.64" stroke="#132e65" stroke-width="1.5"></path><path d="M1582.68 -83L1443.77 71.21" stroke="#132e65" stroke-width="1.5"></path><path d="M1582.68 -83L1301.77 -48.04" stroke="#132e65" stroke-width="1.5"></path><path d="M1593.32 87.64L1593.32 87.64" stroke="#132e65" stroke-width="1.5"></path><path d="M1593.32 87.64L1595 211.22" stroke="#132e65" stroke-width="1.5"></path><path d="M1593.32 87.64L1432.28 -51.36" stroke="#132e65" stroke-width="1.5"></path><path d="M1595 211.22L1595 211.22" stroke="#132e65" stroke-width="1.5"></path><path d="M1595 211.22L1547.52 362.9" stroke="#132e65" stroke-width="1.5"></path><path d="M1595 211.22L1402.45 247.02" stroke="#132e65" stroke-width="1.5"></path><path d="M1547.52 362.9L1547.52 362.9" stroke="#132e65" stroke-width="1.5"></path><path d="M1547.52 362.9L1587.8 515.23" stroke="#132e65" stroke-width="1.5"></path><path d="M1547.52 362.9L1402.45 247.02" stroke="#132e65" stroke-width="1.5"></path><path d="M1587.8 515.23L1587.8 515.23" stroke="#132e65" stroke-width="1.5"></path><path d="M1587.8 515.23L1448.42 521.82" stroke="#132e65" stroke-width="1.5"></path><path d="M1596.09 687.02L1596.09 687.02" stroke="#132e65" stroke-width="1.5"></path><path d="M1596.09 687.02L1587.8 515.23" stroke="#132e65" stroke-width="1.5"></path><path d="M1596.09 687.02L1448.42 521.82" stroke="#132e65" stroke-width="1.5"></path><path d="M1596.09 687.02L1547.52 362.9" stroke="#132e65" stroke-width="1.5"></path><path d="M1596.09 687.02L1292.45 530.03" stroke="#132e65" stroke-width="1.5"></path><circle r="5" cx="-59.69" cy="398.27" fill="#132e65"></circle><circle r="5" cx="-80.77" cy="530.62" fill="#132e65"></circle><circle r="5" cx="-66.27" cy="652.38" fill="#132e65"></circle><circle r="5" cx="98.45" cy="389.16" fill="#132e65"></circle><circle r="5" cx="70.08" cy="554.21" fill="#132e65"></circle><circle r="5" cx="91.16" cy="712.19" fill="#132e65"></circle><circle r="5" cx="259" cy="391.39" fill="#132e65"></circle><circle r="5" cx="229.22" cy="558.76" fill="#132e65"></circle><circle r="5" cx="259.9" cy="695.09" fill="#132e65"></circle><circle r="5" cx="405.88" cy="359.64" fill="#132e65"></circle><circle r="5" cx="383.97" cy="552.8" fill="#132e65"></circle><circle r="5" cx="406.71" cy="704.16" fill="#132e65"></circle><circle r="5" cx="544.51" cy="368.14" fill="#132e65"></circle><circle r="5" cx="517.2" cy="525.13" fill="#132e65"></circle><circle r="5" cx="539.72" cy="677.63" fill="#132e65"></circle><circle r="5" cx="655.46" cy="221.68" fill="#132e65"></circle><circle r="5" cx="697.68" cy="402.8" fill="#132e65"></circle><circle r="5" cx="680.22" cy="518.27" fill="#132e65"></circle><circle r="5" cx="686.26" cy="693.78" fill="#132e65"></circle><circle r="5" cx="832.69" cy="96.76" fill="#132e65"></circle><circle r="5" cx="793.39" cy="219.51" fill="#132e65"></circle><circle r="5" cx="849.78" cy="402.2" fill="#132e65"></circle><circle r="5" cx="804.67" cy="514.53" fill="#132e65"></circle><circle r="5" cx="791.06" cy="666.66" fill="#132e65"></circle><circle r="5" cx="947.93" cy="-69.41" fill="#132e65"></circle><circle r="5" cx="976.37" cy="53.5" fill="#132e65"></circle><circle r="5" cx="966.79" cy="223.15" fill="#132e65"></circle><circle r="5" cx="944.59" cy="363.32" fill="#132e65"></circle><circle r="5" cx="997.4" cy="528.04" fill="#132e65"></circle><circle r="5" cx="1093.79" cy="-71.2" fill="#132e65"></circle><circle r="5" cx="1117.65" cy="105.05" fill="#132e65"></circle><circle r="5" cx="1127.23" cy="212.68" fill="#132e65"></circle><circle r="5" cx="1111.11" cy="363.89" fill="#132e65"></circle><circle r="5" cx="1107.66" cy="546.62" fill="#132e65"></circle><circle r="5" cx="1090.54" cy="662.13" fill="#132e65"></circle><circle r="5" cx="1301.77" cy="-48.04" fill="#132e65"></circle><circle r="5" cx="1303.81" cy="104.18" fill="#132e65"></circle><circle r="5" cx="1292.45" cy="530.03" fill="#132e65"></circle><circle r="5" cx="1432.28" cy="-51.36" fill="#132e65"></circle><circle r="5" cx="1443.77" cy="71.21" fill="#132e65"></circle><circle r="5" cx="1402.45" cy="247.02" fill="#132e65"></circle><circle r="5" cx="1448.42" cy="521.82" fill="#132e65"></circle><circle r="5" cx="1430.3" cy="643.2" fill="#132e65"></circle><circle r="5" cx="1582.68" cy="-83" fill="#132e65"></circle><circle r="5" cx="1593.32" cy="87.64" fill="#132e65"></circle><circle r="5" cx="1595" cy="211.22" fill="#132e65"></circle><circle r="5" cx="1547.52" cy="362.9" fill="#132e65"></circle><circle r="5" cx="1587.8" cy="515.23" fill="#132e65"></circle><circle r="5" cx="1596.09" cy="687.02" fill="#132e65"></circle><path d="M-52.71 677.55L-52.71 677.55" stroke="hsl(228.5, 77.2%, 51.5%)" stroke-width="1.5"></path><path d="M-52.71 677.55L-51.55 553.36" stroke="hsl(228.5, 77.2%, 51.5%)" stroke-width="1.5"></path><path d="M-52.71 677.55L197.92 526.33" stroke="hsl(228.5, 77.2%, 51.5%)" stroke-width="1.5"></path><path d="M-52.71 677.55L247.7 639.1" stroke="hsl(228.5, 77.2%, 51.5%)" stroke-width="1.5"></path><path d="M-52.71 677.55L385.16 660.04" stroke="hsl(228.5, 77.2%, 51.5%)" stroke-width="1.5"></path><path d="M-52.71 677.55L522.49 666.1" stroke="hsl(228.5, 77.2%, 51.5%)" stroke-width="1.5"></path><path d="M691.11 683.74L691.11 683.74" stroke="hsl(228.5, 77.2%, 51.5%)" stroke-width="1.5"></path><path d="M691.11 683.74L818.77 695.26" stroke="hsl(228.5, 77.2%, 51.5%)" stroke-width="1.5"></path><path d="M691.11 683.74L522.49 666.1" stroke="hsl(228.5, 77.2%, 51.5%)" stroke-width="1.5"></path><path d="M691.11 683.74L805.3 549.65" stroke="hsl(228.5, 77.2%, 51.5%)" stroke-width="1.5"></path><path d="M691.11 683.74L681.27 507.18" stroke="hsl(228.5, 77.2%, 51.5%)" stroke-width="1.5"></path><path d="M818.77 695.26L818.77 695.26" stroke="hsl(228.5, 77.2%, 51.5%)" stroke-width="1.5"></path><path d="M818.77 695.26L952.74 679.52" stroke="hsl(228.5, 77.2%, 51.5%)" stroke-width="1.5"></path><path d="M1406.29 194.97L1406.29 194.97" stroke="hsl(228.5, 77.2%, 51.5%)" stroke-width="1.5"></path><path d="M1406.29 194.97L1257.05 217.86" stroke="hsl(228.5, 77.2%, 51.5%)" stroke-width="1.5"></path><path d="M1406.29 194.97L1572.27 201" stroke="hsl(228.5, 77.2%, 51.5%)" stroke-width="1.5"></path><path d="M1406.29 194.97L1441.96 360.74" stroke="hsl(228.5, 77.2%, 51.5%)" stroke-width="1.5"></path><path d="M1457.88 679.62L1457.88 679.62" stroke="hsl(228.5, 77.2%, 51.5%)" stroke-width="1.5"></path><path d="M1457.88 679.62L1541.03 641.05" stroke="hsl(228.5, 77.2%, 51.5%)" stroke-width="1.5"></path><path d="M1457.88 679.62L1432.54 531.81" stroke="hsl(228.5, 77.2%, 51.5%)" stroke-width="1.5"></path><path d="M1457.88 679.62L1285.11 648.12" stroke="hsl(228.5, 77.2%, 51.5%)" stroke-width="1.5"></path><path d="M1457.88 679.62L1552.75 506.85" stroke="hsl(228.5, 77.2%, 51.5%)" stroke-width="1.5"></path><path d="M1457.88 679.62L1306.24 496.78" stroke="hsl(228.5, 77.2%, 51.5%)" stroke-width="1.5"></path><path d="M1560.3 352.98L1560.3 352.98" stroke="hsl(228.5, 77.2%, 51.5%)" stroke-width="1.5"></path><path d="M1560.3 352.98L1441.96 360.74" stroke="hsl(228.5, 77.2%, 51.5%)" stroke-width="1.5"></path><path d="M1560.3 352.98L1572.27 201" stroke="hsl(228.5, 77.2%, 51.5%)" stroke-width="1.5"></path><path d="M1560.3 352.98L1552.75 506.85" stroke="hsl(228.5, 77.2%, 51.5%)" stroke-width="1.5"></path><path d="M1560.3 352.98L1432.54 531.81" stroke="hsl(228.5, 77.2%, 51.5%)" stroke-width="1.5"></path><path d="M1560.3 352.98L1406.29 194.97" stroke="hsl(228.5, 77.2%, 51.5%)" stroke-width="1.5"></path><path d="M1560.3 352.98L1595.9 102" stroke="hsl(228.5, 77.2%, 51.5%)" stroke-width="1.5"></path><path d="M-51.55 553.36L-51.55 553.36" stroke="hsl(228.5, 77.2%, 51.5%)" stroke-width="1.5"></path><path d="M-51.55 553.36L197.92 526.33" stroke="hsl(228.5, 77.2%, 51.5%)" stroke-width="1.5"></path><path d="M-51.55 553.36L247.7 639.1" stroke="hsl(228.5, 77.2%, 51.5%)" stroke-width="1.5"></path><path d="M197.92 526.33L197.92 526.33" stroke="hsl(228.5, 77.2%, 51.5%)" stroke-width="1.5"></path><path d="M197.92 526.33L247.7 639.1" stroke="hsl(228.5, 77.2%, 51.5%)" stroke-width="1.5"></path><path d="M197.92 526.33L385.16 660.04" stroke="hsl(228.5, 77.2%, 51.5%)" stroke-width="1.5"></path><path d="M247.7 639.1L247.7 639.1" stroke="hsl(228.5, 77.2%, 51.5%)" stroke-width="1.5"></path><path d="M247.7 639.1L385.16 660.04" stroke="hsl(228.5, 77.2%, 51.5%)" stroke-width="1.5"></path><path d="M247.7 639.1L522.49 666.1" stroke="hsl(228.5, 77.2%, 51.5%)" stroke-width="1.5"></path><path d="M247.7 639.1L533.54 536.5" stroke="hsl(228.5, 77.2%, 51.5%)" stroke-width="1.5"></path><path d="M385.16 660.04L385.16 660.04" stroke="hsl(228.5, 77.2%, 51.5%)" stroke-width="1.5"></path><path d="M385.16 660.04L522.49 666.1" stroke="hsl(228.5, 77.2%, 51.5%)" stroke-width="1.5"></path><path d="M385.16 660.04L533.54 536.5" stroke="hsl(228.5, 77.2%, 51.5%)" stroke-width="1.5"></path><path d="M385.16 660.04L691.11 683.74" stroke="hsl(228.5, 77.2%, 51.5%)" stroke-width="1.5"></path><path d="M385.16 660.04L681.27 507.18" stroke="hsl(228.5, 77.2%, 51.5%)" stroke-width="1.5"></path><path d="M533.54 536.5L533.54 536.5" stroke="hsl(228.5, 77.2%, 51.5%)" stroke-width="1.5"></path><path d="M533.54 536.5L522.49 666.1" stroke="hsl(228.5, 77.2%, 51.5%)" stroke-width="1.5"></path><path d="M533.54 536.5L681.27 507.18" stroke="hsl(228.5, 77.2%, 51.5%)" stroke-width="1.5"></path><path d="M522.49 666.1L522.49 666.1" stroke="hsl(228.5, 77.2%, 51.5%)" stroke-width="1.5"></path><path d="M522.49 666.1L681.27 507.18" stroke="hsl(228.5, 77.2%, 51.5%)" stroke-width="1.5"></path><path d="M522.49 666.1L818.77 695.26" stroke="hsl(228.5, 77.2%, 51.5%)" stroke-width="1.5"></path><path d="M710.82 388.37L710.82 388.37" stroke="hsl(228.5, 77.2%, 51.5%)" stroke-width="1.5"></path><path d="M710.82 388.37L817.85 371" stroke="hsl(228.5, 77.2%, 51.5%)" stroke-width="1.5"></path><path d="M710.82 388.37L681.27 507.18" stroke="hsl(228.5, 77.2%, 51.5%)" stroke-width="1.5"></path><path d="M710.82 388.37L805.3 549.65" stroke="hsl(228.5, 77.2%, 51.5%)" stroke-width="1.5"></path><path d="M710.82 388.37L533.54 536.5" stroke="hsl(228.5, 77.2%, 51.5%)" stroke-width="1.5"></path><path d="M681.27 507.18L681.27 507.18" stroke="hsl(228.5, 77.2%, 51.5%)" stroke-width="1.5"></path><path d="M681.27 507.18L805.3 549.65" stroke="hsl(228.5, 77.2%, 51.5%)" stroke-width="1.5"></path><path d="M817.85 371L817.85 371" stroke="hsl(228.5, 77.2%, 51.5%)" stroke-width="1.5"></path><path d="M817.85 371L805.3 549.65" stroke="hsl(228.5, 77.2%, 51.5%)" stroke-width="1.5"></path><path d="M805.3 549.65L805.3 549.65" stroke="hsl(228.5, 77.2%, 51.5%)" stroke-width="1.5"></path><path d="M805.3 549.65L818.77 695.26" stroke="hsl(228.5, 77.2%, 51.5%)" stroke-width="1.5"></path><path d="M805.3 549.65L964.15 489.92" stroke="hsl(228.5, 77.2%, 51.5%)" stroke-width="1.5"></path><path d="M1004.96 367.96L1004.96 367.96" stroke="hsl(228.5, 77.2%, 51.5%)" stroke-width="1.5"></path><path d="M1004.96 367.96L1095.89 381.1" stroke="hsl(228.5, 77.2%, 51.5%)" stroke-width="1.5"></path><path d="M1004.96 367.96L964.15 489.92" stroke="hsl(228.5, 77.2%, 51.5%)" stroke-width="1.5"></path><path d="M1004.96 367.96L1132.65 262.24" stroke="hsl(228.5, 77.2%, 51.5%)" stroke-width="1.5"></path><path d="M1004.96 367.96L1124.39 508.28" stroke="hsl(228.5, 77.2%, 51.5%)" stroke-width="1.5"></path><path d="M1004.96 367.96L817.85 371" stroke="hsl(228.5, 77.2%, 51.5%)" stroke-width="1.5"></path><path d="M964.15 489.92L964.15 489.92" stroke="hsl(228.5, 77.2%, 51.5%)" stroke-width="1.5"></path><path d="M964.15 489.92L1124.39 508.28" stroke="hsl(228.5, 77.2%, 51.5%)" stroke-width="1.5"></path><path d="M964.15 489.92L1095.89 381.1" stroke="hsl(228.5, 77.2%, 51.5%)" stroke-width="1.5"></path><path d="M964.15 489.92L817.85 371" stroke="hsl(228.5, 77.2%, 51.5%)" stroke-width="1.5"></path><path d="M952.74 679.52L952.74 679.52" stroke="hsl(228.5, 77.2%, 51.5%)" stroke-width="1.5"></path><path d="M952.74 679.52L1096.72 638.57" stroke="hsl(228.5, 77.2%, 51.5%)" stroke-width="1.5"></path><path d="M952.74 679.52L964.15 489.92" stroke="hsl(228.5, 77.2%, 51.5%)" stroke-width="1.5"></path><path d="M1132.65 262.24L1132.65 262.24" stroke="hsl(228.5, 77.2%, 51.5%)" stroke-width="1.5"></path><path d="M1132.65 262.24L1095.89 381.1" stroke="hsl(228.5, 77.2%, 51.5%)" stroke-width="1.5"></path><path d="M1132.65 262.24L1257.05 217.86" stroke="hsl(228.5, 77.2%, 51.5%)" stroke-width="1.5"></path><path d="M1132.65 262.24L1243.63 374.16" stroke="hsl(228.5, 77.2%, 51.5%)" stroke-width="1.5"></path><path d="M1095.89 381.1L1095.89 381.1" stroke="hsl(228.5, 77.2%, 51.5%)" stroke-width="1.5"></path><path d="M1124.39 508.28L1124.39 508.28" stroke="hsl(228.5, 77.2%, 51.5%)" stroke-width="1.5"></path><path d="M1124.39 508.28L1095.89 381.1" stroke="hsl(228.5, 77.2%, 51.5%)" stroke-width="1.5"></path><path d="M1124.39 508.28L1096.72 638.57" stroke="hsl(228.5, 77.2%, 51.5%)" stroke-width="1.5"></path><path d="M1096.72 638.57L1096.72 638.57" stroke="hsl(228.5, 77.2%, 51.5%)" stroke-width="1.5"></path><path d="M1096.72 638.57L1285.11 648.12" stroke="hsl(228.5, 77.2%, 51.5%)" stroke-width="1.5"></path><path d="M1242.14 -110.34L1242.14 -110.34" stroke="hsl(228.5, 77.2%, 51.5%)" stroke-width="1.5"></path><path d="M1242.14 -110.34L1400.54 -110.67" stroke="hsl(228.5, 77.2%, 51.5%)" stroke-width="1.5"></path><path d="M1242.14 -110.34L1281.39 71.61" stroke="hsl(228.5, 77.2%, 51.5%)" stroke-width="1.5"></path><path d="M1242.14 -110.34L1562.42 -61.08" stroke="hsl(228.5, 77.2%, 51.5%)" stroke-width="1.5"></path><path d="M1281.39 71.61L1281.39 71.61" stroke="hsl(228.5, 77.2%, 51.5%)" stroke-width="1.5"></path><path d="M1281.39 71.61L1257.05 217.86" stroke="hsl(228.5, 77.2%, 51.5%)" stroke-width="1.5"></path><path d="M1281.39 71.61L1406.29 194.97" stroke="hsl(228.5, 77.2%, 51.5%)" stroke-width="1.5"></path><path d="M1281.39 71.61L1400.54 -110.67" stroke="hsl(228.5, 77.2%, 51.5%)" stroke-width="1.5"></path><path d="M1281.39 71.61L1132.65 262.24" stroke="hsl(228.5, 77.2%, 51.5%)" stroke-width="1.5"></path><path d="M1257.05 217.86L1257.05 217.86" stroke="hsl(228.5, 77.2%, 51.5%)" stroke-width="1.5"></path><path d="M1243.63 374.16L1243.63 374.16" stroke="hsl(228.5, 77.2%, 51.5%)" stroke-width="1.5"></path><path d="M1243.63 374.16L1306.24 496.78" stroke="hsl(228.5, 77.2%, 51.5%)" stroke-width="1.5"></path><path d="M1243.63 374.16L1095.89 381.1" stroke="hsl(228.5, 77.2%, 51.5%)" stroke-width="1.5"></path><path d="M1243.63 374.16L1257.05 217.86" stroke="hsl(228.5, 77.2%, 51.5%)" stroke-width="1.5"></path><path d="M1243.63 374.16L1124.39 508.28" stroke="hsl(228.5, 77.2%, 51.5%)" stroke-width="1.5"></path><path d="M1243.63 374.16L1441.96 360.74" stroke="hsl(228.5, 77.2%, 51.5%)" stroke-width="1.5"></path><path d="M1306.24 496.78L1306.24 496.78" stroke="hsl(228.5, 77.2%, 51.5%)" stroke-width="1.5"></path><path d="M1306.24 496.78L1432.54 531.81" stroke="hsl(228.5, 77.2%, 51.5%)" stroke-width="1.5"></path><path d="M1306.24 496.78L1285.11 648.12" stroke="hsl(228.5, 77.2%, 51.5%)" stroke-width="1.5"></path><path d="M1285.11 648.12L1285.11 648.12" stroke="hsl(228.5, 77.2%, 51.5%)" stroke-width="1.5"></path><path d="M1285.11 648.12L1432.54 531.81" stroke="hsl(228.5, 77.2%, 51.5%)" stroke-width="1.5"></path><path d="M1400.54 -110.67L1400.54 -110.67" stroke="hsl(228.5, 77.2%, 51.5%)" stroke-width="1.5"></path><path d="M1400.54 -110.67L1562.42 -61.08" stroke="hsl(228.5, 77.2%, 51.5%)" stroke-width="1.5"></path><path d="M1400.54 -110.67L1595.9 102" stroke="hsl(228.5, 77.2%, 51.5%)" stroke-width="1.5"></path><path d="M1400.54 -110.67L1406.29 194.97" stroke="hsl(228.5, 77.2%, 51.5%)" stroke-width="1.5"></path><path d="M1441.96 360.74L1441.96 360.74" stroke="hsl(228.5, 77.2%, 51.5%)" stroke-width="1.5"></path><path d="M1441.96 360.74L1432.54 531.81" stroke="hsl(228.5, 77.2%, 51.5%)" stroke-width="1.5"></path><path d="M1441.96 360.74L1552.75 506.85" stroke="hsl(228.5, 77.2%, 51.5%)" stroke-width="1.5"></path><path d="M1441.96 360.74L1306.24 496.78" stroke="hsl(228.5, 77.2%, 51.5%)" stroke-width="1.5"></path><path d="M1432.54 531.81L1432.54 531.81" stroke="hsl(228.5, 77.2%, 51.5%)" stroke-width="1.5"></path><path d="M1432.54 531.81L1552.75 506.85" stroke="hsl(228.5, 77.2%, 51.5%)" stroke-width="1.5"></path><path d="M1432.54 531.81L1541.03 641.05" stroke="hsl(228.5, 77.2%, 51.5%)" stroke-width="1.5"></path><path d="M1562.42 -61.08L1562.42 -61.08" stroke="hsl(228.5, 77.2%, 51.5%)" stroke-width="1.5"></path><path d="M1562.42 -61.08L1595.9 102" stroke="hsl(228.5, 77.2%, 51.5%)" stroke-width="1.5"></path><path d="M1595.9 102L1595.9 102" stroke="hsl(228.5, 77.2%, 51.5%)" stroke-width="1.5"></path><path d="M1595.9 102L1572.27 201" stroke="hsl(228.5, 77.2%, 51.5%)" stroke-width="1.5"></path><path d="M1595.9 102L1406.29 194.97" stroke="hsl(228.5, 77.2%, 51.5%)" stroke-width="1.5"></path><path d="M1572.27 201L1572.27 201" stroke="hsl(228.5, 77.2%, 51.5%)" stroke-width="1.5"></path><path d="M1552.75 506.85L1552.75 506.85" stroke="hsl(228.5, 77.2%, 51.5%)" stroke-width="1.5"></path><path d="M1552.75 506.85L1541.03 641.05" stroke="hsl(228.5, 77.2%, 51.5%)" stroke-width="1.5"></path><path d="M1541.03 641.05L1541.03 641.05" stroke="hsl(228.5, 77.2%, 51.5%)" stroke-width="1.5"></path><circle r="25" cx="-52.71" cy="677.55" fill="url(#SvgjsRadialGradient1011)"></circle><circle r="25" cx="691.11" cy="683.74" fill="url(#SvgjsRadialGradient1011)"></circle><circle r="25" cx="818.77" cy="695.26" fill="url(#SvgjsRadialGradient1011)"></circle><circle r="25" cx="1406.29" cy="194.97" fill="url(#SvgjsRadialGradient1011)"></circle><circle r="25" cx="1457.88" cy="679.62" fill="url(#SvgjsRadialGradient1011)"></circle><circle r="25" cx="1560.3" cy="352.98" fill="url(#SvgjsRadialGradient1011)"></circle><circle r="5" cx="-51.55" cy="553.36" fill="#8b9ad9"></circle><circle r="5" cx="197.92" cy="526.33" fill="#8b9ad9"></circle><circle r="5" cx="247.7" cy="639.1" fill="#8b9ad9"></circle><circle r="5" cx="385.16" cy="660.04" fill="#8b9ad9"></circle><circle r="5" cx="533.54" cy="536.5" fill="#8b9ad9"></circle><circle r="5" cx="522.49" cy="666.1" fill="#8b9ad9"></circle><circle r="5" cx="710.82" cy="388.37" fill="#8b9ad9"></circle><circle r="5" cx="681.27" cy="507.18" fill="#8b9ad9"></circle><circle r="5" cx="817.85" cy="371" fill="#8b9ad9"></circle><circle r="5" cx="805.3" cy="549.65" fill="#8b9ad9"></circle><circle r="5" cx="1004.96" cy="367.96" fill="#8b9ad9"></circle><circle r="5" cx="964.15" cy="489.92" fill="#8b9ad9"></circle><circle r="5" cx="952.74" cy="679.52" fill="#8b9ad9"></circle><circle r="5" cx="1132.65" cy="262.24" fill="#8b9ad9"></circle><circle r="5" cx="1095.89" cy="381.1" fill="#8b9ad9"></circle><circle r="5" cx="1124.39" cy="508.28" fill="#8b9ad9"></circle><circle r="5" cx="1096.72" cy="638.57" fill="#8b9ad9"></circle><circle r="5" cx="1242.14" cy="-110.34" fill="#8b9ad9"></circle><circle r="5" cx="1281.39" cy="71.61" fill="#8b9ad9"></circle><circle r="5" cx="1257.05" cy="217.86" fill="#8b9ad9"></circle><circle r="5" cx="1243.63" cy="374.16" fill="#8b9ad9"></circle><circle r="5" cx="1306.24" cy="496.78" fill="#8b9ad9"></circle><circle r="5" cx="1285.11" cy="648.12" fill="#8b9ad9"></circle><circle r="5" cx="1400.54" cy="-110.67" fill="#8b9ad9"></circle><circle r="5" cx="1441.96" cy="360.74" fill="#8b9ad9"></circle><circle r="5" cx="1432.54" cy="531.81" fill="#8b9ad9"></circle><circle r="5" cx="1562.42" cy="-61.08" fill="#8b9ad9"></circle><circle r="5" cx="1595.9" cy="102" fill="#8b9ad9"></circle><circle r="5" cx="1572.27" cy="201" fill="#8b9ad9"></circle><circle r="5" cx="1552.75" cy="506.85" fill="#8b9ad9"></circle><circle r="5" cx="1541.03" cy="641.05" fill="#8b9ad9"></circle></g><defs><mask id="SvgjsMask1010"><rect width="1440" height="560" fill="#ffffff"></rect></mask><radialGradient id="SvgjsRadialGradient1011"><stop stop-color="#ffffff" offset="0.1"></stop><stop stop-color="#1735b3" offset="0.2"></stop><stop stop-color="rgba(23, 53, 179, 0)" offset="1"></stop></radialGradient></defs></svg>